# Blender v2.83.0 OBJ File: 'tile.blend'
# www.blender.org
mtllib tile.mtl
o Ocean_Plane.003
v 3.516077 -0.558022 -2.687917
v 5.516077 -0.558022 -2.687917
v 3.516077 -0.558022 -4.687917
v 5.516077 -0.558022 -4.687917
v 3.516077 -0.095728 -4.687917
v 3.516077 -0.095728 -2.687917
v 5.516077 -0.095728 -2.687917
v 5.516077 -0.095728 -4.687917
v 5.516077 -0.326875 -4.687917
v 5.516077 -0.326875 -2.687917
v 3.516077 -0.326875 -2.687917
v 3.516077 -0.326875 -4.687917
vt 0.649610 0.871432
vt 0.561355 0.871432
vt 0.561355 0.783177
vt 0.649610 0.783177
vt 0.517757 0.869881
vt 0.429502 0.869881
vt 0.429502 0.781626
vt 0.517757 0.781626
vt 0.517757 0.869881
vt 0.429502 0.869881
vt 0.517757 0.781626
vt 0.517757 0.869881
vt 0.429502 0.869881
vt 0.429502 0.781626
vt 0.517757 0.869881
vt 0.429502 0.869881
vt 0.429502 0.781626
vt 0.517757 0.781626
vt 0.517757 0.869881
vt 0.429502 0.869881
vt 0.429502 0.781626
vt 0.517757 0.781626
vt 0.561355 0.871432
vt 0.561355 0.783177
vt 0.649610 0.783177
vt 0.649610 0.871432
vt 0.561355 0.783177
vt 0.649610 0.783177
vt 0.649610 0.871432
vt 0.561355 0.871432
vt 0.561355 0.783177
vt 0.649610 0.783177
vt 0.649610 0.871432
vt 0.561355 0.871432
vt 0.561355 0.783177
vt 0.649610 0.783177
vn 0.0000 -1.0000 0.0000
vn 0.0000 1.0000 0.0000
vn 1.0000 0.0000 0.0000
vn -1.0000 0.0000 0.0000
vn 0.0000 0.0000 -1.0000
vn 0.0000 0.0000 1.0000
usemtl Material.002
s off
f 1/1/1 3/2/1 4/3/1 2/4/1
f 6/5/2 7/6/2 8/7/2 5/8/2
f 10/9/3 9/10/3 8/7/3 7/11/3
f 12/12/4 11/13/4 6/14/4 5/8/4
f 9/15/5 12/16/5 5/17/5 8/18/5
f 11/19/6 10/20/6 7/21/6 6/22/6
f 1/1/6 2/23/6 10/24/6 11/25/6
f 4/26/5 3/2/5 12/27/5 9/28/5
f 3/29/4 1/30/4 11/31/4 12/32/4
f 2/33/3 4/34/3 9/35/3 10/36/3
